<svg width="52" height="56" viewBox="0 0 52 56" fill="none" xmlns="http://www.w3.org/2000/svg">
<path fill-rule="evenodd" clip-rule="evenodd" d="M15.3451 8.3823V12.5348Z" fill="#D7D3C8"/>
<path d="M15.3451 8.3823V12.5348" stroke="#726647" stroke-width="2"/>
<path d="M15.3455 8.6966C16.8039 8.6966 17.8771 7.4545 17.8771 6.06199C17.8771 5.67659 17.7693 5.24654 17.6511 4.88103C17.5257 4.49322 17.3571 4.08419 17.1757 3.71064C16.9964 3.34158 16.7893 2.97551 16.5781 2.68609C16.4746 2.54433 16.3468 2.38849 16.198 2.25758C16.0896 2.16225 15.7854 1.91003 15.3455 1.91003C14.9057 1.91003 14.6014 2.16225 14.493 2.25758C14.3442 2.38849 14.2164 2.54433 14.113 2.68609C13.9018 2.97551 13.6946 3.34158 13.5154 3.71064C13.3339 4.08419 13.1654 4.49322 13.04 4.88103C12.9218 5.24654 12.814 5.67659 12.814 6.06199C12.814 7.4545 13.8871 8.6966 15.3455 8.6966Z" fill="#EFCB6C" stroke="#726647" stroke-width="2"/>
<rect x="12.498" y="12.4204" width="5.6944" height="14.0295" rx="2.8472" fill="#D7D3C8" stroke="#726647" stroke-width="2"/>
<path fill-rule="evenodd" clip-rule="evenodd" d="M25.9999 8.3823V12.5348Z" fill="#D7D3C8"/>
<path d="M25.9999 8.3823V12.5348" stroke="#726647" stroke-width="2"/>
<path d="M25.9998 8.6966C27.4582 8.6966 28.5314 7.4545 28.5314 6.06199C28.5314 5.67659 28.4236 5.24654 28.3054 4.88103C28.18 4.49322 28.0114 4.08419 27.83 3.71064C27.6507 3.34158 27.4436 2.97551 27.2324 2.68609C27.1289 2.54433 27.0011 2.38849 26.8523 2.25758C26.7439 2.16225 26.4397 1.91003 25.9998 1.91003C25.56 1.91003 25.2557 2.16225 25.1473 2.25758C24.9985 2.38849 24.8707 2.54433 24.7673 2.68609C24.5561 2.97551 24.3489 3.34158 24.1697 3.71064C23.9882 4.08419 23.8197 4.49322 23.6943 4.88103C23.5761 5.24654 23.4683 5.67659 23.4683 6.06199C23.4683 7.4545 24.5414 8.6966 25.9998 8.6966Z" fill="#EFCB6C" stroke="#726647" stroke-width="2"/>
<rect x="23.1528" y="12.4204" width="5.6944" height="14.0295" rx="2.8472" fill="#D7D3C8" stroke="#726647" stroke-width="2"/>
<path fill-rule="evenodd" clip-rule="evenodd" d="M36.6547 8.3823V12.5348Z" fill="#D7D3C8"/>
<path d="M36.6547 8.3823V12.5348" stroke="#726647" stroke-width="2"/>
<path d="M36.6546 8.6966C38.113 8.6966 39.1862 7.4545 39.1862 6.06199C39.1862 5.67659 39.0784 5.24654 38.9602 4.88103C38.8348 4.49322 38.6662 4.08419 38.4848 3.71064C38.3055 3.34158 38.0984 2.97551 37.8871 2.68609C37.7837 2.54433 37.6559 2.38849 37.5071 2.25758C37.3987 2.16225 37.0944 1.91003 36.6546 1.91003C36.2148 1.91003 35.9105 2.16225 35.8021 2.25758C35.6533 2.38849 35.5255 2.54433 35.4221 2.68609C35.2109 2.97551 35.0037 3.34158 34.8245 3.71064C34.643 4.08419 34.4744 4.49322 34.349 4.88103C34.2308 5.24654 34.123 5.67659 34.123 6.06199C34.123 7.4545 35.1962 8.6966 36.6546 8.6966Z" fill="#EFCB6C" stroke="#726647" stroke-width="2"/>
<rect x="33.8076" y="12.4204" width="5.6944" height="14.0295" rx="2.8472" fill="#D7D3C8" stroke="#726647" stroke-width="2"/>
<path d="M5.375 27.2132C5.375 25.5563 6.71815 24.2132 8.375 24.2132H43.625C45.2819 24.2132 46.625 25.5563 46.625 27.2132V43.9267H5.375V27.2132Z" fill="white" stroke="#726647" stroke-width="2"/>
<path d="M1 45.7015C1 44.0447 2.34315 42.7015 4 42.7015H48C49.6569 42.7015 51 44.0447 51 45.7015V54.217H1V45.7015Z" fill="#D7D3C8" stroke="#726647" stroke-width="2"/>
<path fill-rule="evenodd" clip-rule="evenodd" d="M4.7915 33.9008H46.6251Z" fill="#FF9292"/>
<path d="M4.7915 33.9008H46.6251" stroke="#726647" stroke-width="2"/>
</svg>
