<svg width="14" height="19" viewBox="0 0 14 19" fill="none" xmlns="http://www.w3.org/2000/svg">
<mask id="path-1-outside-1_0_25" maskUnits="userSpaceOnUse" x="0.305176" y="0.907898" width="14" height="18" fill="black">
<rect fill="white" x="0.305176" y="0.907898" width="14" height="18"/>
<path fill-rule="evenodd" clip-rule="evenodd" d="M1.30518 7.57268C1.30518 4.43897 3.83625 1.9079 6.96996 1.9079C10.1037 1.9079 12.6347 4.43897 12.695 7.57268C12.695 10.164 8.8984 15.7083 7.51233 17.6367C7.21101 17.9983 6.7289 17.9983 6.48785 17.6367C5.10179 15.648 1.30518 10.1038 1.30518 7.57268ZM3.29388 7.45215C3.29388 9.50112 4.92099 11.1282 6.96996 11.1282C9.01892 11.1282 10.646 9.50112 10.646 7.45215C10.646 5.40319 9.01892 3.77607 6.96996 3.77607C4.92099 3.77607 3.29388 5.40319 3.29388 7.45215Z"/>
</mask>
<path fill-rule="evenodd" clip-rule="evenodd" d="M1.30518 7.57268C1.30518 4.43897 3.83625 1.9079 6.96996 1.9079C10.1037 1.9079 12.6347 4.43897 12.695 7.57268C12.695 10.164 8.8984 15.7083 7.51233 17.6367C7.21101 17.9983 6.7289 17.9983 6.48785 17.6367C5.10179 15.648 1.30518 10.1038 1.30518 7.57268ZM3.29388 7.45215C3.29388 9.50112 4.92099 11.1282 6.96996 11.1282C9.01892 11.1282 10.646 9.50112 10.646 7.45215C10.646 5.40319 9.01892 3.77607 6.96996 3.77607C4.92099 3.77607 3.29388 5.40319 3.29388 7.45215Z" fill="#F38B5B"/>
<path d="M12.695 7.57268H13.695V7.56307L13.6948 7.55345L12.695 7.57268ZM7.51233 17.6367L8.28055 18.2769L8.30346 18.2494L8.32435 18.2203L7.51233 17.6367ZM6.48785 17.6367L7.3199 17.082L7.31416 17.0734L7.30825 17.0649L6.48785 17.6367ZM6.96996 0.907898C3.28396 0.907898 0.305176 3.88669 0.305176 7.57268H2.30518C2.30518 4.99126 4.38853 2.9079 6.96996 2.9079V0.907898ZM13.6948 7.55345C13.6243 3.8862 10.6595 0.907898 6.96996 0.907898V2.9079C9.5478 2.9079 11.6452 4.99174 11.6952 7.59191L13.6948 7.55345ZM8.32435 18.2203C9.02612 17.244 10.3437 15.3449 11.4902 13.3519C12.0631 12.3562 12.604 11.3185 13.0044 10.3489C13.3946 9.40418 13.695 8.42288 13.695 7.57268H11.695C11.695 8.01815 11.5209 8.70163 11.1558 9.58551C10.8011 10.4445 10.3062 11.3993 9.75665 12.3546C8.65834 14.2638 7.38461 16.101 6.70032 17.0531L8.32435 18.2203ZM5.6558 18.1914C5.95909 18.6463 6.44997 18.9079 6.97749 18.9079C7.4935 18.9079 7.96062 18.6608 8.28055 18.2769L6.74411 16.9965C6.76273 16.9742 6.83813 16.9079 6.97749 16.9079C7.12837 16.9079 7.25767 16.9887 7.3199 17.082L5.6558 18.1914ZM0.305176 7.57268C0.305176 8.41081 0.607639 9.38295 0.996891 10.3177C1.39713 11.2789 1.93771 12.3121 2.50994 13.3067C3.65527 15.2976 4.97196 17.2106 5.66745 18.2085L7.30825 17.0649C6.61768 16.0741 5.34303 14.2206 4.24354 12.3094C3.69336 11.3531 3.19815 10.4013 2.84322 9.54891C2.47729 8.67014 2.30518 8.00009 2.30518 7.57268H0.305176ZM6.96996 10.1282C5.47328 10.1282 4.29388 8.94883 4.29388 7.45215H2.29388C2.29388 10.0534 4.36871 12.1282 6.96996 12.1282V10.1282ZM9.64604 7.45215C9.64604 8.94883 8.46664 10.1282 6.96996 10.1282V12.1282C9.57121 12.1282 11.646 10.0534 11.646 7.45215H9.64604ZM6.96996 4.77607C8.46664 4.77607 9.64604 5.95547 9.64604 7.45215H11.646C11.646 4.8509 9.57121 2.77607 6.96996 2.77607V4.77607ZM4.29388 7.45215C4.29388 5.95547 5.47328 4.77607 6.96996 4.77607V2.77607C4.36871 2.77607 2.29388 4.8509 2.29388 7.45215H4.29388Z" fill="#D6643A" mask="url(#path-1-outside-1_0_25)"/>
</svg>
