<svg width="400" height="75" viewBox="0 0 400 75" fill="none" xmlns="http://www.w3.org/2000/svg">
<path fill-rule="evenodd" clip-rule="evenodd" d="M399.386 26.1564C398.977 26.5117 398.416 26.8252 397.708 27.0978C397.652 29.3361 397.585 32.1736 397.503 35.612C397.421 39.0503 397.352 42.6934 397.298 46.5411C397.243 50.3889 397.202 54.2235 397.176 58.0434C397.147 61.8641 397.135 65.2476 397.135 68.1948C397.135 69.122 396.916 69.9267 396.48 70.6099C396.042 71.2914 395.483 71.8506 394.801 72.2882C394.118 72.7241 393.354 73.0659 392.509 73.3115C391.662 73.5571 390.831 73.6799 390.012 73.6799C389.083 73.6799 388.306 73.3381 387.679 72.6566C387.051 71.9734 386.764 71.0319 386.819 69.8322L387.065 65.4114L369.464 66.3119V69.5047C369.409 70.9783 368.727 72.0962 367.417 72.8612C366.107 73.6246 364.687 74.0074 363.16 74.0074C361.795 74.0074 360.827 73.6517 360.254 72.9431C359.681 72.2329 359.448 71.3058 359.558 70.1596C359.666 67.5935 359.763 64.4159 359.844 60.6222C359.926 56.8293 359.994 52.8588 360.049 48.7106C358.793 49.8027 357.429 50.8801 355.956 51.9443C354.482 53.0086 352.953 54.0319 351.371 55.0143C351.261 57.6341 351.193 60.2407 351.167 62.8326C351.138 65.4253 351.097 67.9758 351.044 70.4871C350.989 71.2505 350.77 71.9198 350.389 72.4928C350.006 73.0659 349.501 73.5289 348.874 73.8846C348.246 74.2386 347.55 74.4986 346.787 74.6623C346.022 74.826 345.231 74.9079 344.413 74.9079C343.103 74.9079 342.12 74.5522 341.465 73.8436C340.81 73.1334 340.537 72.1781 340.647 70.9783L341.22 60.5813C340.346 60.9636 339.513 61.3181 338.723 61.6455C337.931 61.973 337.153 62.2734 336.39 62.5461C335.788 62.7646 335.27 62.9423 334.834 63.0782C334.397 63.2149 333.797 63.2828 333.033 63.2828C332.268 63.2828 331.531 63.0373 330.823 62.5461C330.113 62.0549 329.499 61.4409 328.981 60.7041C328.461 59.9673 328.052 59.1764 327.753 58.3299C327.452 57.4842 327.302 56.6795 327.302 55.9149C327.302 54.2235 328.257 53.2411 330.168 52.9677C331.914 52.7499 333.756 52.5043 335.694 52.2309C337.63 51.9582 339.554 51.6856 341.465 51.4122L341.711 40.5239L337.863 40.6877C337.426 41.7798 336.594 42.6115 335.366 43.1846C334.138 43.7577 332.869 44.072 331.56 44.1261C330.467 44.1261 329.567 43.9214 328.858 43.5121C328.148 43.1027 327.794 42.5166 327.794 41.7519C327.738 41.043 327.902 40.1695 328.285 39.1322C329.595 35.5849 330.823 32.1056 331.969 28.6942C333.115 25.2837 334.151 21.8584 335.08 18.42L329.677 18.6656C329.239 18.6656 328.844 18.5428 328.49 18.2972C328.134 18.0516 327.929 17.6562 327.876 17.1101L335.489 16.7008C336.089 14.6271 336.635 12.5395 337.126 10.438C337.618 8.33729 338.081 6.24969 338.518 4.17519C338.736 3.02906 339.077 2.25133 339.542 1.842C340.004 1.43266 340.618 1.20098 341.384 1.14613C342.038 1.14613 342.747 1.29677 343.512 1.5964C344.275 1.89685 344.986 2.30618 345.641 2.8244C346.296 3.34343 346.84 3.94351 347.278 4.62546C347.714 5.30823 347.933 6.05813 347.933 6.87679C347.933 7.42284 347.851 7.94106 347.687 8.43226L345.641 16.2096L349.488 15.964C349.816 15.4728 350.225 14.9275 350.716 14.3266C351.208 13.7266 351.74 13.1535 352.313 12.6074C352.886 12.0622 353.472 11.612 354.073 11.2567C354.673 10.9022 355.273 10.7245 355.874 10.7245C356.582 10.7245 357.307 10.8883 358.043 11.2157C358.78 11.5432 359.462 11.9664 360.09 12.4846C360.717 13.0037 361.236 13.5628 361.646 14.1629C362.055 14.7638 362.26 15.3369 362.26 15.8821C362.26 16.5919 361.74 16.9742 360.704 17.0282L345.149 17.8469C344.112 21.449 343.021 25.106 341.875 28.817C340.729 32.5289 339.609 35.9394 338.518 39.0503L343.43 38.8047C343.539 36.84 343.594 34.7393 343.594 32.501C343.594 30.2636 343.539 28.1899 343.43 26.2792C343.375 24.0418 344.357 22.9226 346.377 22.9226C347.086 22.9226 347.796 23.0323 348.506 23.2501C349.214 23.4687 349.857 23.7822 350.43 24.1916C351.003 24.6009 351.453 25.0651 351.781 25.5833C352.108 26.1023 352.272 26.6885 352.272 27.3434L351.862 36.5944C352.462 35.7217 353.117 34.93 353.827 34.2202C354.536 33.5113 355.273 33.156 356.038 33.156C356.746 33.2108 357.483 33.5244 358.248 34.0974C359.011 34.6705 359.64 35.3393 360.131 36.1032C360.185 33.3197 360.213 30.7548 360.213 28.4077C360.213 26.0614 360.213 24.0418 360.213 22.3496C360.213 19.7847 361.277 18.5018 363.406 18.5018C364.824 18.5018 366.243 18.8023 367.663 19.4024C369.081 20.0033 370.254 20.6582 371.183 21.3672L373.803 21.2034C373.803 18.3111 373.788 15.4048 373.762 12.4846C373.734 9.56529 373.666 6.68604 373.557 3.84773C373.557 2.53786 373.911 1.56938 374.621 0.941465C375.33 0.314368 376.149 0 377.077 0C377.786 0 378.564 0.136717 379.411 0.409333C380.256 0.682767 381.048 1.07818 381.785 1.5964C382.521 2.11543 383.135 2.71551 383.627 3.39746C384.118 4.08023 384.363 4.83013 384.363 5.64879L384.036 20.6304L386.492 20.4666C386.928 19.8117 387.542 19.0749 388.334 18.2562C389.124 17.4376 390.148 17.0282 391.404 17.0282C392.223 17.0282 393.136 17.2738 394.147 17.765C395.156 18.2562 396.083 18.8702 396.93 19.607C397.775 20.3438 398.498 21.1625 399.099 22.063C399.699 22.9636 400 23.8232 400 24.6418C400 25.2968 399.795 25.8019 399.386 26.1564ZM360.131 39.7053H359.804L351.781 40.0327L351.453 49.693C353.035 49.4204 354.55 49.1199 355.997 48.7925C357.442 48.465 358.793 48.1375 360.049 47.8101C360.103 46.4462 360.131 45.0815 360.131 43.7167C360.131 42.3528 360.131 41.0151 360.131 39.7053ZM369.464 64.7564L373.393 64.5108C373.502 61.1822 373.598 57.8526 373.68 54.5231C373.762 51.1944 373.856 47.8649 373.966 44.5354L369.709 44.781C369.654 48.438 369.599 52.0131 369.546 55.5055C369.49 58.9988 369.464 62.0827 369.464 64.7564ZM370.037 23.0864C369.982 25.2697 369.927 28.1351 369.873 31.6824C369.818 35.2305 369.763 39.0233 369.709 43.0618L373.966 42.8162C374.02 39.4875 374.075 36.158 374.13 32.8285C374.184 29.4998 374.212 26.1703 374.212 22.8408L370.037 23.0864ZM383.054 64.0196L387.147 63.774C387.255 60.6631 387.337 57.4024 387.393 53.991C387.446 50.5804 387.501 47.1551 387.556 43.7167L383.217 43.9623C383.162 47.7282 383.121 51.3172 383.095 54.7278C383.066 58.1392 383.054 61.2362 383.054 64.0196ZM387.638 22.0221L383.627 22.2677L383.217 42.325L387.556 42.0794C387.61 38.3135 387.638 34.6983 387.638 31.2321C387.638 27.7667 387.638 24.6967 387.638 22.0221ZM299.713 61.6455C300.696 61.6455 301.746 61.5637 302.865 61.3999C303.983 61.2362 305.088 60.9366 306.181 60.4994C307.272 60.063 308.281 59.49 309.21 58.7802C310.137 58.0712 310.901 57.1707 311.502 56.0786C313.576 56.6795 315.309 57.675 316.701 59.0667C318.093 60.4585 318.788 62.0278 318.788 63.774C318.788 65.3573 318.228 66.693 317.11 67.7855C315.991 68.8764 314.49 69.763 312.607 70.4462C310.725 71.1277 308.568 71.6189 306.14 71.9198C303.711 72.219 301.159 72.37 298.485 72.37C296.302 72.37 294.31 72.219 292.509 71.9198C290.708 71.6189 289.153 71.1011 287.843 70.3643C286.533 69.6275 285.522 68.6578 284.814 67.458C284.104 66.2567 283.776 64.7564 283.831 62.9554C283.885 60.8817 283.954 58.5485 284.036 55.9558C284.118 53.3639 284.185 50.7442 284.241 48.0966C284.294 45.4499 284.335 42.8571 284.363 40.3193C284.39 37.7814 284.404 35.5301 284.404 33.5653L278.183 33.8109C278.727 34.3569 279.001 34.93 279.001 35.5301C279.001 36.131 278.987 36.7581 278.96 37.413C278.932 38.068 278.864 38.7507 278.756 39.4597C278.428 43.553 277.636 47.3737 276.382 50.921C275.125 54.4691 273.189 57.7159 270.569 60.6631C267.949 63.6103 264.537 66.2427 260.336 68.5632C256.132 70.8821 250.921 72.833 244.699 74.4167C248.027 71.797 251.003 69.0954 253.623 66.3119C256.242 63.5284 258.506 60.5403 260.418 57.3475C262.327 54.1547 263.856 50.6893 265.002 46.9505C266.148 43.2124 266.885 39.0233 267.212 34.384L247.728 35.2845C247.291 35.2845 246.895 35.1617 246.541 34.9161C246.185 34.6705 245.954 34.2751 245.845 33.729L275.89 32.3373C275.999 30.1547 276.081 27.8485 276.136 25.4196C276.19 22.9914 276.23 20.5763 276.259 18.1744C276.285 15.7732 276.271 13.454 276.218 11.2157C276.163 8.97831 276.081 6.90463 275.972 4.99386C275.862 3.62996 276.19 2.60663 276.955 1.92386C277.718 1.24192 278.727 0.900532 279.984 0.900532C280.911 0.900532 281.852 1.05117 282.808 1.3508C283.762 1.65125 284.622 2.06058 285.387 2.5788C286.15 3.09783 286.779 3.71183 287.27 4.42079C287.761 5.13058 288.007 5.89439 288.007 6.71306C287.951 8.13262 287.896 9.87884 287.843 11.9525C287.788 14.027 287.72 16.2096 287.638 18.5018C287.556 20.7941 287.474 23.1003 287.393 25.4196C287.311 27.7397 287.242 29.8813 287.188 31.8461L303.561 31.0274C303.997 30.3725 304.529 29.6905 305.158 28.9808C305.784 28.2718 306.439 27.6029 307.122 26.975C307.804 26.3479 308.514 25.8428 309.251 25.4605C309.988 25.079 310.71 24.8874 311.42 24.8874C312.239 24.8874 313.07 25.079 313.917 25.4605C314.763 25.8428 315.526 26.334 316.21 26.9341C316.891 27.535 317.45 28.176 317.888 28.858C318.324 29.5407 318.543 30.1817 318.543 30.7818C318.488 31.1641 318.351 31.4507 318.133 31.6414C317.914 31.833 317.505 31.9558 316.905 32.0098L296.357 32.9922C296.029 38.1228 295.77 42.8162 295.579 47.0733C295.387 51.3303 295.293 55.0962 295.293 58.3709C295.293 59.4081 295.592 60.2129 296.193 60.7859C296.793 61.359 297.966 61.6455 299.713 61.6455ZM306.508 17.1101C305.143 19.4024 302.919 21.7495 299.836 24.1506C296.752 26.5526 293.136 28.6263 288.989 30.3725C289.916 28.7352 290.79 26.975 291.609 25.0921C292.427 23.2092 293.177 21.3262 293.86 19.4433C294.542 17.5604 295.129 15.7462 295.62 13.9992C296.111 12.253 296.492 10.6705 296.766 9.25092C297.038 8.10479 297.489 7.28612 298.117 6.79492C298.744 6.30372 299.603 6.08596 300.696 6.13999C301.515 6.19484 302.36 6.44044 303.234 6.87679C304.106 7.31396 304.898 7.85919 305.608 8.51412C306.316 9.16905 306.903 9.87884 307.368 10.6427C307.831 11.4073 308.064 12.1163 308.064 12.7712C308.064 13.5358 307.9 14.2996 307.573 15.0634C307.245 15.8281 306.889 16.51 306.508 17.1101ZM271.019 27.4662C270.555 28.203 269.968 28.8309 269.259 29.3492C268.549 29.8682 267.675 30.1547 266.639 30.2088C264.347 30.3725 262.695 29.7994 261.686 28.4896C260.676 27.1797 260.172 25.0512 260.172 22.104C260.226 20.0851 259.98 17.9836 259.435 15.8002C258.889 13.6177 257.988 11.6529 256.734 9.90585C259.243 10.2333 261.427 10.8064 263.283 11.6251C265.138 12.4437 266.707 13.413 267.99 14.5313C269.272 15.6504 270.242 16.8923 270.896 18.2562C271.551 19.621 271.961 21.0127 272.124 22.4314C272.178 23.305 272.124 24.1785 271.961 25.0512C271.797 25.9247 271.482 26.7294 271.019 27.4662ZM236.676 21.5309L224.724 22.1858C224.724 25.133 224.724 28.1899 224.724 31.3549C224.724 34.5207 224.709 37.6177 224.683 40.6467C224.655 43.6758 224.628 46.596 224.601 49.4065C224.573 52.2178 224.532 54.7556 224.478 57.0201C224.423 59.2853 224.368 61.2362 224.314 62.8735C224.259 64.5108 224.177 65.6848 224.069 66.3938C223.905 67.4298 223.59 68.3995 223.127 69.3C222.663 70.2006 222.104 70.9783 221.449 71.6332C220.794 72.2882 220.057 72.7921 219.239 73.1478C218.42 73.5018 217.573 73.6799 216.701 73.6799C214.245 73.6799 212.225 72.765 210.643 70.9374C209.059 69.1081 207.968 66.9668 207.368 64.5108C209.114 64.7294 210.492 64.5248 211.502 63.8968C212.511 63.2698 213.07 62.3823 213.181 61.2362C213.398 58.9988 213.576 56.379 213.713 53.377C213.848 50.3758 213.944 47.183 213.999 43.7986C214.053 40.4151 214.081 36.9357 214.081 33.3606C214.081 29.7863 214.053 26.2792 213.999 22.8408L196.807 23.7413C196.37 23.7413 195.974 23.6185 195.62 23.3729C195.264 23.1273 195.06 22.7319 195.006 22.1858L213.917 21.2034C213.862 17.9836 213.807 14.9546 213.754 12.1163C213.698 9.27876 213.616 6.74089 213.508 4.50266C213.398 1.7192 214.626 0.327466 217.192 0.327466C218.228 0.327466 219.21 0.478101 220.139 0.777732C221.066 1.07818 221.871 1.48752 222.554 2.00573C223.236 2.52476 223.782 3.15186 224.192 3.88866C224.601 4.62546 224.777 5.40319 224.724 6.22186V19.9754C225.16 19.3754 225.651 18.7614 226.197 18.1334C226.742 17.5063 227.302 16.9333 227.876 16.4142C228.449 15.896 229.048 15.4728 229.677 15.1453C230.303 14.8178 230.946 14.6541 231.6 14.6541C232.419 14.6541 233.223 14.8318 234.016 15.1862C234.806 15.5415 235.516 16.0049 236.144 16.578C236.771 17.151 237.276 17.779 237.659 18.4609C238.04 19.1437 238.232 19.7847 238.232 20.3848C238.232 21.0946 237.712 21.4769 236.676 21.5309ZM193.614 28.1621C193.504 31.928 193.41 35.7077 193.328 39.5006C193.246 43.2943 193.177 46.8686 193.123 50.2251C193.068 53.5817 193.041 56.2702 193.041 58.289C193.041 59.2174 192.822 60.0221 192.386 60.7041C191.949 61.3868 191.376 61.946 190.667 62.3823C189.957 62.8195 189.165 63.16 188.293 63.4056C187.419 63.6512 186.574 63.774 185.755 63.774C184.663 63.774 183.803 63.4196 183.176 62.7098C182.548 62.0008 182.289 61.0184 182.399 59.7626L182.562 56.3242L177.077 56.6517C177.022 58.235 176.981 59.6537 176.955 60.9087C176.926 62.1646 176.914 63.174 176.914 63.9378C176.858 65.4114 176.136 66.5293 174.744 67.2943C173.352 68.0577 171.838 68.4404 170.201 68.4404C168.727 68.4404 167.716 68.0986 167.172 67.4171C166.625 66.7339 166.379 65.8207 166.435 64.6746C166.543 61.0184 166.666 56.8842 166.803 52.2718C166.939 47.6603 167.049 42.9799 167.131 38.2317C167.212 33.4834 167.28 28.8989 167.335 24.4781C167.389 20.0573 167.389 16.1555 167.335 12.7712C167.335 11.4613 167.594 10.4519 168.113 9.74212C168.631 9.03316 169.517 8.67785 170.774 8.67785C172.192 8.67785 173.666 8.99222 175.194 9.61932C176.722 10.2472 177.978 10.9431 178.96 11.7069L182.071 11.5432C182.671 10.8883 183.408 10.1384 184.282 9.29185C185.154 8.44617 186.3 8.02292 187.72 8.02292C188.647 8.02292 189.63 8.26852 190.667 8.75972C191.703 9.25092 192.659 9.87884 193.533 10.6427C194.405 11.4073 195.129 12.2391 195.702 13.1396C196.275 14.0401 196.562 14.8997 196.562 15.7184C196.562 16.9742 195.688 17.8199 193.942 18.2562C193.832 21.0946 193.723 24.3962 193.614 28.1621ZM182.726 54.6869C182.944 50.9759 183.095 47.4286 183.176 44.0442C183.258 40.6607 183.326 37.3312 183.381 34.0565L177.323 34.384L177.077 55.0143L182.726 54.6869ZM183.504 22.8408C183.476 19.6758 183.463 16.4282 183.463 13.0986L177.732 13.4261C177.622 15.7732 177.54 18.6386 177.487 22.0221C177.431 25.4065 177.377 28.9808 177.323 32.7466L183.463 32.4192C183.517 29.1993 183.53 26.0065 183.504 22.8408ZM153.336 68.0311L83.5039 70.4052C83.0663 70.4052 82.6709 70.2824 82.3168 70.0368C81.9611 69.7912 81.7847 69.3946 81.7847 68.8498L111.912 67.7855C112.075 64.6205 112.198 61.1543 112.28 57.3885C112.362 53.6226 112.456 49.693 112.567 45.5997L95.8657 46.2546C95.4282 46.2546 95.0471 46.1318 94.7196 45.8862C94.3921 45.6406 94.2002 45.2452 94.1465 44.6991L112.648 43.9623C112.702 40.8514 112.757 37.7405 112.812 34.6296C112.866 31.5186 112.894 28.4896 112.894 25.5424L102.824 26.0336C101.187 29.8543 98.8256 33.4834 95.7429 36.9218C92.6586 40.3602 88.5796 43.3893 83.5039 46.009C86.1772 41.097 88.3467 35.8715 90.0123 30.3316C91.6762 24.7925 92.9185 19.2386 93.7372 13.6717C94.0094 12.0892 94.3921 10.9161 94.8833 10.1515C95.3745 9.38764 96.3835 9.00532 97.9124 9.00532C98.8948 9.00532 99.849 9.19689 100.778 9.57839C101.705 9.9607 102.538 10.4658 103.275 11.0929C104.011 11.7208 104.611 12.4306 105.076 13.2214C105.539 14.0131 105.743 14.8178 105.69 15.6365C105.634 16.4011 105.539 17.151 105.403 17.8878C105.266 18.6246 105.117 19.3205 104.953 19.9754C104.734 20.7401 104.515 21.4769 104.298 22.1858C104.079 22.8956 103.833 23.6054 103.561 24.3144L112.894 23.905C112.948 20.2489 112.962 16.8514 112.935 13.7126C112.907 10.5747 112.866 7.85919 112.812 5.56693C112.702 3.87556 113.029 2.7016 113.795 2.04666C114.558 1.39173 115.567 1.06427 116.824 1.06427C117.806 1.06427 118.815 1.24192 119.853 1.5964C120.889 1.9517 121.817 2.41506 122.636 2.98813C123.455 3.5612 124.122 4.25706 124.642 5.07573C125.16 5.89439 125.391 6.74089 125.338 7.61359C125.228 9.25092 125.133 11.4482 125.051 14.2038C124.969 16.9603 124.873 19.9754 124.765 23.2501L133.361 22.8408C133.905 22.1318 134.519 21.3811 135.203 20.5894C135.884 19.7986 136.594 19.0749 137.331 18.42C138.068 17.765 138.831 17.2329 139.623 16.8236C140.414 16.4142 141.22 16.2096 142.038 16.2096C142.911 16.2096 143.799 16.4142 144.699 16.8236C145.6 17.2329 146.431 17.7519 147.196 18.379C147.959 19.007 148.588 19.6758 149.079 20.3848C149.57 21.0946 149.816 21.7495 149.816 22.3496C149.816 23.2231 149.269 23.6873 148.178 23.7413L124.765 24.9693L124.273 43.553L129.022 43.3074C129.567 42.5436 130.168 41.7929 130.823 41.0561C131.478 40.3193 132.159 39.6643 132.869 39.0913C133.578 38.5182 134.329 38.0679 135.121 37.7405C135.911 37.413 136.717 37.2493 137.536 37.2493C138.408 37.2493 139.282 37.4409 140.156 37.8223C141.028 38.2047 141.806 38.6819 142.489 39.255C143.17 39.8281 143.729 40.456 144.167 41.1379C144.603 41.8207 144.822 42.4347 144.822 42.9799C144.822 43.8535 144.302 44.3176 143.266 44.3717L124.192 45.1903C124.081 49.6111 123.987 53.7593 123.905 57.6341C123.823 61.5096 123.754 64.7564 123.7 67.3762L138.436 66.885C138.981 66.1748 139.609 65.4392 140.319 64.6746C141.028 63.9108 141.752 63.2149 142.489 62.587C143.226 61.9599 144.003 61.4548 144.822 61.0725C145.641 60.691 146.459 60.4994 147.278 60.4994C148.15 60.4994 149.051 60.718 149.98 61.1543C150.907 61.5915 151.74 62.1367 152.476 62.7916C153.213 63.4466 153.813 64.1293 154.278 64.8383C154.74 65.5481 154.973 66.2018 154.973 66.8031C154.973 67.6218 154.427 68.0311 153.336 68.0311ZM67.3352 69.5456C66.3795 70.4998 65.3704 71.2775 64.3062 71.8788C63.2419 72.4785 62.1903 72.7794 61.1543 72.7794C59.0794 72.7794 56.8973 71.797 54.605 69.8322C52.3127 67.8674 50.1433 65.0708 48.0966 61.4409C46.0499 57.8117 44.2616 53.4318 42.7343 48.3013C41.2055 43.1715 40.1682 37.4679 39.6234 31.1912C37.1122 43.0896 32.6365 52.5722 26.1973 59.6398C19.7564 66.7069 11.0237 71.605 0 74.3348C4.693 70.4052 8.82726 66.3246 12.4028 62.0958C15.9767 57.8666 18.993 53.0905 21.449 47.7691C23.905 42.4478 25.7597 36.3627 27.016 29.5129C28.2706 22.6639 28.8989 14.6271 28.8989 5.40319C28.9525 3.76586 29.3619 2.5788 30.1269 1.842C30.8903 1.1052 32.0364 0.736799 33.5653 0.736799C34.6562 0.736799 35.7348 0.914449 36.799 1.26893C37.8633 1.62423 38.8047 2.0876 39.6234 2.66066C40.4421 3.23373 41.097 3.87556 41.5882 4.58453C42.0794 5.29431 42.2968 6.03111 42.2431 6.79492L41.9157 13.0986C41.8056 15.0634 41.6701 16.9742 41.5063 18.8293C41.3426 20.6852 41.1236 22.4863 40.8514 24.2325C43.2522 32.7466 47.0733 40.2783 52.3127 46.8277C57.5522 53.377 64.1551 58.5894 72.1244 62.4642C71.5231 63.774 70.8146 65.043 69.9959 66.271C69.1772 67.499 68.2894 68.5898 67.3352 69.5456ZM206.263 34.0565C207.544 35.1486 208.596 36.3897 209.415 37.7814C210.233 39.1731 210.614 40.6877 210.561 42.325C210.451 44.1809 209.783 45.6545 208.555 46.7458C207.327 47.8379 205.921 48.3831 204.339 48.3831C202.374 48.3831 201.091 47.6193 200.491 46.0909C199.89 44.5632 199.617 42.5706 199.673 40.1146C199.726 38.0409 199.576 36.1719 199.222 34.5068C198.867 32.8424 198.307 31.219 197.544 29.6357C198.907 30.018 200.381 30.5772 201.965 31.314C203.547 32.0508 204.98 32.9652 206.263 34.0565Z" fill="#726647"/>
</svg>
